<svg width="154" height="32" viewBox="0 0 154 32" fill="none" xmlns="http://www.w3.org/2000/svg">
  <rect width="32" height="32" rx="8" fill="#3374FF"/>
  <path d="M8 23L15.2 8H18.2L25.5 23H21.2L19.9 20H13.4L12.1 23H8ZM14.8 16.6H18.5L16.7 12.2L14.8 16.6Z" fill="white"/>
  <path d="M44 23L51.2 8.4H54.5L61.8 23H57.7L56.4 20H49.2L47.9 23H44ZM50.7 16.8H54.9L52.8 12L50.7 16.8ZM66.1 23V8H69.9V23H66.1ZM76.3 23V8H80.1V23H76.3ZM86.4 23V11.5H90.2V23H86.4ZM86.3 9.8V6.8H90.3V9.8H86.3ZM99.3 23.2C97.9 23.2 96.8 22.8 96 22C95.2 21.2 94.8 20.1 94.8 18.7V14.5H92.9V11.5H94.8V8.6H98.6V11.5H101.7V14.5H98.6V18.1C98.6 18.7 98.7 19.1 99 19.4C99.3 19.7 99.7 19.9 100.3 19.9C100.8 19.9 101.3 19.8 101.8 19.6V22.6C101 23 100.2 23.2 99.3 23.2ZM110.5 23.2C108.8 23.2 107.4 22.7 106.3 21.6C105.2 20.5 104.7 19.1 104.7 17.3C104.7 15.6 105.3 14.1 106.4 13C107.5 11.9 108.9 11.3 110.6 11.3C112.3 11.3 113.7 11.9 114.8 13C115.9 14.1 116.4 15.5 116.4 17.3C116.4 19.1 115.8 20.5 114.7 21.6C113.6 22.7 112.2 23.2 110.5 23.2ZM110.6 20C111.2 20 111.7 19.8 112.1 19.3C112.5 18.8 112.7 18.1 112.7 17.3C112.7 16.5 112.5 15.8 112.1 15.3C111.7 14.8 111.2 14.6 110.5 14.6C109.9 14.6 109.4 14.8 109 15.3C108.6 15.8 108.4 16.5 108.4 17.3C108.4 18.1 108.6 18.8 109 19.3C109.4 19.8 109.9 20 110.6 20ZM124.3 23.2C122.1 23.2 120.2 22.6 118.8 21.4L120.3 18.9C121.6 19.9 123 20.4 124.4 20.4C125.2 20.4 125.6 20.2 125.6 19.8C125.6 19.6 125.5 19.4 125.2 19.3C124.9 19.2 124.4 19 123.7 18.8C122.4 18.5 121.4 18.1 120.8 17.5C120.2 16.9 119.8 16.1 119.8 15C119.8 13.9 120.2 13 121.1 12.3C122 11.6 123.1 11.3 124.5 11.3C126.3 11.3 127.9 11.8 129.2 12.7L127.7 15.2C126.5 14.4 125.4 14 124.4 14C123.7 14 123.3 14.2 123.3 14.6C123.3 14.8 123.4 15 123.7 15.1C124 15.2 124.5 15.4 125.2 15.6C126.5 15.9 127.5 16.3 128.1 16.9C128.8 17.5 129.1 18.3 129.1 19.3C129.1 20.5 128.7 21.5 127.8 22.2C126.9 22.9 125.7 23.2 124.3 23.2Z" fill="white"/>
</svg>
